<svg width="62" height="60" viewBox="0 0 62 60" fill="none" xmlns="http://www.w3.org/2000/svg">
<path d="M29.3945 1.70253C30.0037 0.297495 31.9963 0.297492 32.6055 1.70253L40.0935 18.9703C40.347 19.5551 40.8985 19.9557 41.533 20.0162L60.2695 21.8016C61.7941 21.9469 62.4098 23.8419 61.2618 24.8555L47.1531 37.313C46.6753 37.7348 46.4646 38.3831 46.6032 39.0053L50.6951 57.3765C51.0281 58.8713 49.416 60.0425 48.0973 59.2639L31.8897 49.6953C31.3408 49.3712 30.6592 49.3712 30.1103 49.6953L13.9027 59.2639C12.584 60.0425 10.9719 58.8713 11.3049 57.3765L15.3968 39.0053C15.5354 38.3831 15.3247 37.7348 14.8469 37.313L0.738199 24.8555C-0.409797 23.8419 0.20593 21.9469 1.73048 21.8016L20.467 20.0162C21.1015 19.9557 21.653 19.5551 21.9065 18.9703L29.3945 1.70253Z" fill="#FFAA04"/>
</svg>
